<svg width="16" height="16" viewBox="0 0 16 16" fill="none" xmlns="http://www.w3.org/2000/svg">
<path d="M2 8.66667C2 7.95942 2.28095 7.28115 2.78105 6.78105C3.28115 6.28095 3.95942 6 4.66667 6H11.3333C12.0406 6 12.7189 6.28095 13.219 6.78105C13.719 7.28115 14 7.95942 14 8.66667V13.3333C14 13.687 13.8595 14.0261 13.6095 14.2761C13.3594 14.5262 13.0203 14.6667 12.6667 14.6667H3.33333C2.97971 14.6667 2.64057 14.5262 2.39052 14.2761C2.14048 14.0261 2 13.687 2 13.3333V8.66667Z" stroke="#4A3830" stroke-width="1.33333" stroke-linecap="round" stroke-linejoin="round"/>
<path d="M2 8.66663L3.94267 10.2206C4.734 10.854 5.876 10.7906 6.59267 10.074C6.77746 9.88911 6.99686 9.74248 7.23834 9.64244C7.47981 9.5424 7.73862 9.49091 8 9.49091C8.26138 9.49091 8.52019 9.5424 8.76166 9.64244C9.00314 9.74248 9.22254 9.88911 9.40733 10.074C9.75362 10.4202 10.2154 10.6265 10.7043 10.6536C11.1932 10.6806 11.675 10.5265 12.0573 10.2206L14 8.66663" stroke="#4A3830" stroke-width="1.33333" stroke-linecap="round"/>
<path d="M8.0013 3.99996C7.64768 3.99996 7.30854 3.85948 7.05849 3.60943C6.80844 3.35939 6.66797 3.02025 6.66797 2.66663C6.66797 2.08263 7.1193 1.61596 7.51664 1.18863L8.0013 0.666626L8.48597 1.18863C8.8833 1.61596 9.33464 2.08263 9.33464 2.66663C9.33464 3.02025 9.19416 3.35939 8.94411 3.60943C8.69406 3.85948 8.35492 3.99996 8.0013 3.99996Z" stroke="#4A3830" stroke-width="1.33333" stroke-linecap="round" stroke-linejoin="round"/>
</svg>
