<svg width="40" height="41" viewBox="0 0 40 41" fill="none" xmlns="http://www.w3.org/2000/svg">
<g clip-path="url(#clip0_187_46574)">
<path opacity="0.7" d="M20 1C30.7696 1 39.5 9.73045 39.5 20.5C39.5 31.2696 30.7696 40 20 40C9.23045 40 0.5 31.2696 0.5 20.5C0.5 9.73045 9.23045 1 20 1Z" stroke="white"/>
<path fill-rule="evenodd" clip-rule="evenodd" d="M29 19.5263C29 15.652 24.9625 12.5 20 12.5C15.0377 12.5 11 15.652 11 19.5263C11 22.9994 14.2019 25.9086 18.527 26.4589C18.8199 26.5196 19.2188 26.6451 19.3198 26.886C19.4106 27.1047 19.3793 27.4474 19.3488 27.6685C19.3488 27.6685 19.2436 28.2796 19.2204 28.41C19.1814 28.6288 19.0395 29.2659 20 28.8767C20.9608 28.4874 25.1828 25.9404 27.071 23.8494C28.3754 22.4736 29 21.077 29 19.5263ZM14.4146 21.6339C14.1861 21.6339 14 21.4408 14 21.203V17.9397C14 17.7022 14.2116 17.5089 14.48 17.5089C14.7484 17.5089 14.9 17.7006 14.9 17.9397V20.7724H15.9854C16.2143 20.7724 16.4 20.9657 16.4 21.203C16.4 21.4408 16.2143 21.6339 15.9854 21.6339H14.4146ZM18.2 21.203C18.2 21.4408 17.9981 21.6339 17.7501 21.6339C17.5019 21.6339 17.3 21.4408 17.3 21.203V17.9397C17.3 17.7022 17.5019 17.5089 17.7501 17.5089C17.9981 17.5089 18.2 17.7022 18.2 17.9397V21.203ZM22.7 21.203C22.7 21.389 22.5717 21.5532 22.3797 21.6116C22.3316 21.6265 22.2813 21.6339 22.2309 21.6339C22.0849 21.6339 21.9449 21.5696 21.8566 21.4616L20.0372 19.1842V21.203C20.0372 21.4408 19.8272 21.6339 19.5687 21.6339C19.3103 21.6339 19.1 21.4408 19.1 21.203V17.9397C19.1 17.7541 19.2288 17.5899 19.4203 17.5312C19.4686 17.5162 19.5187 17.5089 19.5691 17.5089C19.7153 17.5089 19.8554 17.5731 19.9431 17.6812L21.7631 19.9587V17.9397C21.7631 17.7022 21.9735 17.5089 22.2316 17.5089C22.4902 17.5089 22.7 17.7022 22.7 17.9397V21.203ZM25.5853 19.1407C25.8142 19.1407 26 19.3339 26 19.5715C26 19.8088 25.8142 20.002 25.5853 20.002H24.4294V20.7724H25.5853C25.8138 20.7724 26 20.9657 26 21.203C26 21.4408 25.8138 21.6339 25.5853 21.6339H24.0145C23.7863 21.6339 23.6 21.4408 23.6 21.203V19.5726V19.5715V17.9397C23.6 17.7022 23.7859 17.5089 24.0145 17.5089H25.5853C25.8142 17.5089 26 17.7022 26 17.9397C26 18.1772 25.8142 18.3702 25.5853 18.3702H24.4294V19.1407H25.5853Z" fill="white"/>
</g>
<defs>
<clipPath id="clip0_187_46574">
<rect width="40" height="40" fill="white" transform="translate(0 0.5)"/>
</clipPath>
</defs>
</svg>
