<svg width="40" height="41" viewBox="0 0 40 41" fill="none" xmlns="http://www.w3.org/2000/svg">
<g clip-path="url(#clip0_187_46577)">
<path opacity="0.7" d="M20 1C30.7696 1 39.5 9.73045 39.5 20.5C39.5 31.2696 30.7696 40 20 40C9.23045 40 0.5 31.2696 0.5 20.5C0.5 9.73045 9.23045 1 20 1Z" stroke="white"/>
<path fill-rule="evenodd" clip-rule="evenodd" d="M20 12.4946C20.855 12.4946 21.732 12.5166 22.582 12.5526L23.586 12.6006L24.547 12.6576L25.447 12.7186L26.269 12.7826C27.161 12.8509 28.0004 13.2316 28.6395 13.8577C29.2786 14.4838 29.6764 15.3152 29.763 16.2056L29.803 16.6306L29.878 17.5406C29.948 18.4836 30 19.5116 30 20.4946C30 21.4776 29.948 22.5056 29.878 23.4486L29.803 24.3586C29.79 24.5046 29.777 24.6456 29.763 24.7836C29.6764 25.6742 29.2784 26.5058 28.6391 27.1319C27.9999 27.758 27.1602 28.1386 26.268 28.2066L25.448 28.2696L24.548 28.3316L23.586 28.3886L22.582 28.4366C21.732 28.4726 20.855 28.4946 20 28.4946C19.145 28.4946 18.268 28.4726 17.418 28.4366L16.414 28.3886L15.453 28.3316L14.553 28.2696L13.731 28.2066C12.839 28.1384 11.9996 27.7577 11.3605 27.1316C10.7214 26.5055 10.3236 25.6741 10.237 24.7836L10.197 24.3586L10.122 23.4486C10.0455 22.4658 10.0048 21.4804 10 20.4946C10 19.5116 10.052 18.4836 10.122 17.5406L10.197 16.6306C10.21 16.4846 10.223 16.3436 10.237 16.2056C10.3235 15.3153 10.7212 14.484 11.3601 13.858C11.999 13.2319 12.8381 12.8511 13.73 12.7826L14.551 12.7186L15.451 12.6576L16.413 12.6006L17.417 12.5526C18.268 12.5166 19.145 12.4946 20 12.4946ZM18 18.0696V22.9196C18 23.3816 18.5 23.6696 18.9 23.4396L23.1 21.0146C23.1914 20.962 23.2673 20.8863 23.3201 20.795C23.3729 20.7037 23.4007 20.6001 23.4007 20.4946C23.4007 20.3892 23.3729 20.2856 23.3201 20.1943C23.2673 20.103 23.1914 20.0272 23.1 19.9746L18.9 17.5506C18.8088 17.498 18.7053 17.4702 18.5999 17.4702C18.4945 17.4703 18.3911 17.498 18.2998 17.5507C18.2086 17.6034 18.1329 17.6792 18.0802 17.7705C18.0276 17.8618 17.9999 17.9653 18 18.0706V18.0696Z" fill="white"/>
</g>
<defs>
<clipPath id="clip0_187_46577">
<rect width="40" height="40" fill="white" transform="translate(0 0.5)"/>
</clipPath>
</defs>
</svg>
